#tb 0: 1/15
0,          0,          0,        1,   230400, 0xfbf2581e
0,          1,          1,        1,   230400, 0xfbf2581e
0,          2,          2,        1,   230400, 0xfbf2581e
0,          3,          3,        1,   230400, 0xfbf2581e
0,          4,          4,        1,   230400, 0xfbf2581e
0,          5,          5,        1,   230400, 0xfbf2581e
0,          6,          6,        1,   230400, 0xfbf2581e
0,          7,          7,        1,   230400, 0xfbf2581e
0,          8,          8,        1,   230400, 0xfbf2581e
0,          9,          9,        1,   230400, 0xfbf2581e
0,         10,         10,        1,   230400, 0xfbf2581e
0,         11,         11,        1,   230400, 0xfbf2581e
0,         12,         12,        1,   230400, 0xfbf2581e
0,         13,         13,        1,   230400, 0xfbf2581e
0,         14,         14,        1,   230400, 0xfbf2581e
0,         15,         15,        1,   230400, 0xf5a0a21d
0,         16,         16,        1,   230400, 0x909cc039
0,         17,         17,        1,   230400, 0x14d899dd
0,         18,         18,        1,   230400, 0x0d246edf
0,         19,         19,        1,   230400, 0x5345fe0d
0,         20,         20,        1,   230400, 0x5abdff9a
0,         21,         21,        1,   230400, 0x1730d973
0,         22,         22,        1,   230400, 0xec881be9
0,         23,         23,        1,   230400, 0xf4216895
0,         24,         24,        1,   230400, 0x529d7a52
0,         25,         25,        1,   230400, 0x93b4c7b9
0,         26,         26,        1,   230400, 0xedc65bcd
0,         27,         27,        1,   230400, 0xf0fb54ae
0,         28,         28,        1,   230400, 0x27864ce9
0,         29,         29,        1,   230400, 0xcd05012d
0,         30,         30,        1,   230400, 0x019b6d84
0,         31,         31,        1,   230400, 0xcc05d416
0,         32,         32,        1,   230400, 0xb04c0248
0,         33,         33,        1,   230400, 0x6806eb92
0,         34,         34,        1,   230400, 0x60e9c001
0,         35,         35,        1,   230400, 0x9b040261
0,         36,         36,        1,   230400, 0x6961fb90
0,         37,         37,        1,   230400, 0xbf67ad24
0,         38,         38,        1,   230400, 0x2270f328
0,         39,         39,        1,   230400, 0xd0c345f6
0,         40,         40,        1,   230400, 0xfd159212
0,         41,         41,        1,   230400, 0x085578ff
0,         42,         42,        1,   230400, 0xcca8afa6
0,         43,         43,        1,   230400, 0x901ec91c
0,         44,         44,        1,   230400, 0xf1cb99f3
0,         45,         45,        1,   230400, 0x86d98f0c
0,         46,         46,        1,   230400, 0x52970700
